<svg xmlns="http://www.w3.org/2000/svg" viewBox="0 0 625.8 100"><g><rect x="14" y="14" width="72" height="72" rx="17" fill="none" stroke="#F4F2EC" stroke-width="6"/><path d="M34 35 L50 64" stroke="#F4F2EC" stroke-width="9" stroke-linecap="round" fill="none"/><path d="M50 64 L66 35" stroke="#E8821E" stroke-width="9" stroke-linecap="round" fill="none"/></g><svg x="130.0" y="24.0" width="495.8" height="52.0" viewBox="0 0 6674 700" preserveAspectRatio="xMinYMid meet"><g fill="#F4F2EC" transform="translate(0,700) scale(1,-1)"><path d="M344.36962890625 0 12.5654296875 687.54345703125H239.0849609375L389.28173828125 353.345703125Q398.564453125 333.7802734375 410.02099609375 305.2802734375Q421.4775390625 276.7802734375 433.02099609375 247.791259765625Q444.564453125 218.80224609375 452.6513671875 196.45458984375H460.10791015625Q467.6513671875 216.71533203125 478.423095703125 244.660888671875Q489.19482421875 272.6064453125 501.1513671875 301.378173828125Q513.10791015625 330.14990234375 523.4775390625 352.88916015625L675.2177734375 687.54345703125H891.650390625L559.84619140625 0Z" transform="translate(0,0)"/><path d="M84.50048828125 0V687.54345703125H801.23876953125V536.63134765625H288.67236328125V421.15185546875H737.4345703125V275.130859375H288.67236328125V150.912109375H809.23876953125V0Z" transform="translate(916,0)"/><path d="M84.50048828125 0V687.54345703125H288.12890625V163.89013671875H729.5634765625V0Z" transform="translate(1791,0)"/><path d="M357.2607421875 0V274.19580078125L17.45654296875 687.54345703125H258.06298828125L459.43359375 430.43359375H467.80322265625L670.54345703125 687.54345703125H900.6064453125L560.88916015625 274.19580078125V0Z" transform="translate(2557,0)"/><path d="M84.50048828125 0V687.54345703125H266.62939453125L623.06494140625 366.75927734375Q632.2607421875 359.02001953125 646.45654296875 344.9111328125Q660.65234375 330.80224609375 676.076416015625 315.693359375Q691.50048828125 300.58447265625 703.32666015625 288.388671875H712.41357421875Q711.95703125 306.041015625 711.272216796875 333.193359375Q710.58740234375 360.345703125 710.58740234375 381.4326171875V687.54345703125H903.32470703125V0H723.65234375L375.9990234375 313.9150390625Q352.259765625 335.02392578125 326.0205078125 360.817626953125Q299.78125 386.611328125 283.955078125 402.3505859375H275.8681640625Q276.32470703125 388.80712890625 276.78125 360.111328125Q277.23779296875 331.41552734375 277.23779296875 298.11083984375V0Z" transform="translate(3487,0)"/><path d="M322.3046875 0V523.6533203125H24.36962890625V687.54345703125H823.8681640625V523.6533203125H525.93310546875V0Z" transform="translate(4487,0)"/><path d="M84.50048828125 0V687.54345703125H288.12890625V0Z" transform="translate(5347,0)"/><path d="M487.45654296875 -12Q343.02197265625 -12 246.84814453125 28.5Q150.67431640625 69 102.859130859375 148.228271484375Q55.0439453125 227.45654296875 55.0439453125 344Q55.0439453125 514.54345703125 165.76123046875 607.04345703125Q276.478515625 699.54345703125 488.0869140625 699.54345703125Q606.2607421875 699.54345703125 696.119384765625 664.097900390625Q785.97802734375 628.65234375 836.56494140625 564.206787109375Q887.15185546875 499.76123046875 887.15185546875 412.3046875H688.697265625Q688.697265625 454.6962890625 663.1318359375 485.207275390625Q637.56640625 515.71826171875 591.80517578125 532.1748046875Q546.0439453125 548.63134765625 484.54345703125 548.63134765625Q413.23876953125 548.63134765625 363.9775390625 524.489990234375Q314.71630859375 500.3486328125 289.509521484375 457.23974609375Q264.302734375 414.130859375 264.302734375 357V332Q264.302734375 275.49951171875 289.509521484375 231.890625Q314.71630859375 188.28173828125 363.390625 163.596923828125Q412.06494140625 138.912109375 482.28271484375 138.912109375Q548.41357421875 138.912109375 595.76171875 154.596923828125Q643.10986328125 170.28173828125 668.71875 200.249267578125Q694.32763671875 230.216796875 694.32763671875 272.15185546875H887.6083984375Q887.6083984375 187.23876953125 838.880126953125 123.06494140625Q790.15185546875 58.89111328125 700.521484375 23.445556640625Q610.89111328125 -12 487.45654296875 -12Z" transform="translate(5732,0)"/></g></svg></svg>